#!OML:ASF H:\MichaelJackson\Top Level 1\Subject 1\Session 1\male.ASF
:FULLY-SPECIFIED
:DEGREES
117
root 5.37829 17.2678 -18.3901 -10.1347 23.4402 -11.1658
lowerback 6.90379 -3.08675 1.82977
upperback 0.0791577 -3.76946 4.77486
thorax -3.58289 -1.86128 4.30235
lowerneck -8.1841 -4.39277 -1.1596
upperneck -1.48933 -5.75229 2.22947
head 1.00507 -2.82475 0.69224
rclavicle 9.12422e-014 -2.32578e-014
rhumerus -50.2234 -11.1873 -57.3258
rradius 65.9398
rwrist 18.2062
rhand -14.0265 -28.9662
rfingers 7.12502
rthumb 12.1036 -58.5961
lclavicle 9.12422e-014 -2.32578e-014
lhumerus -42.5557 -9.51722 87.4878
lradius 47.7792
lwrist 8.16257
lhand 5.80503 15.8196
lfingers 7.12502
lthumb 31.1375 43.1948
rfemur -52.264 4.40083 -6.1197
rtibia 42.33
rfoot 10.4253 10.7636
rtoes 14.9824
lfemur -7.87509 -0.919216 -15.11
ltibia 28.9813
lfoot -10.1577 -4.20527
ltoes 40.655
118
root 5.37136 17.2395 -18.3863 -9.8784 22.3928 -10.8271
lowerback 7.21312 -2.91077 1.36735
upperback 0.120488 -3.56094 4.80032
thorax -3.69543 -1.74926 4.58737
lowerneck -8.23193 -4.16901 -1.17059
upperneck -1.54427 -5.45414 2.33804
head 0.99512 -2.67415 0.737924
rclavicle 1.11816e-015 1.47101e-014
rhumerus -50.039 -11.6707 -57.4587
rradius 67.268
rwrist 13.9494
rhand -12.6776 -29.264
rfingers 7.12502
rthumb 13.4039 -58.8128
lclavicle 1.11816e-015 1.47101e-014
lhumerus -42.7398 -10.1311 88.1583
lradius 48.9564
lwrist 8.62096
lhand 5.607 15.5533
lfingers 7.12502
lthumb 30.9488 42.9645
rfemur -52.6805 2.26169 -3.3181
rtibia 36.7699
rfoot 7.22126 12.9805
rtoes 6.69267
lfemur -8.05452 0.411288 -15.1355
ltibia 29.4932
lfoot -10.6274 -4.42422
ltoes 40.6222
119
root 5.35644 17.2089 -18.3824 -9.62065 21.285 -10.361
lowerback 7.58875 -2.723 0.704837
upperback 0.177358 -3.35887 4.75785
thorax -3.82437 -1.63722 4.9176
lowerneck -8.2923 -3.92886 -1.18131
upperneck -1.59209 -5.13537 2.53109
head 0.991663 -2.51169 0.810382
rclavicle 1.38714e-014 1.98785e-014
rhumerus -49.749 -12.2285 -57.7677
rradius 68.5771
rwrist 9.1711
rhand -11.3349 -29.5421
rfingers 7.12502
rthumb 14.6979 -59.0011
lclavicle 1.38714e-014 1.98785e-014
lhumerus -43.0308 -10.813 88.7581
lradius 50.2426
lwrist 9.14817
lhand 5.49625 15.247
lfingers 7.12502
lthumb 30.8432 42.6783
rfemur -53.7939 -1.32855 1.38462
rtibia 33.0622
rfoot 4.81022 16.0112
rtoes -2.07812
lfemur -8.24891 1.78281 -15.2426
ltibia 30.108
lfoot -11.0823 -4.69934
ltoes 40.5908
120
root 5.33312 17.1764 -18.3798 -9.37877 20.1931 -9.75622
lowerback 8.02884 -2.53873 -0.163218
upperback 0.256875 -3.18903 4.62972
thorax -3.96078 -1.53787 5.28009
lowerneck -8.37176 -3.67934 -1.18082
upperneck -1.64181 -4.80594 2.80192
head 0.992154 -2.34248 0.905629
rclavicle -3.5452e-014 2.5842e-014
rhumerus -49.3718 -12.8844 -58.2591
rradius 69.8733
rwrist 3.93745
rhand -10.0149 -29.9349
rfingers 7.12502
rthumb 15.9693 -59.2967
lclavicle -3.5452e-014 2.5842e-014
lhumerus -43.3828 -11.5673 89.2654
lradius 51.5853
lwrist 9.73393
lhand 5.48518 14.9391
lfingers 7.12502
lthumb 30.8326 42.3724
rfemur -55.9394 -6.18834 8.08378
rtibia 31.6233
rfoot 3.40298 19.6677
rtoes -9.24449
lfemur -8.43134 3.14125 -15.4767
ltibia 30.7693
lfoot -11.499 -4.96421
ltoes 40.5356
121
root 5.30149 17.1408 -18.3784 -9.16805 19.1842 -9.02173
lowerback 8.52653 -2.37294 -1.20806
upperback 0.36218 -3.07376 4.40743
thorax -4.09692 -1.46282 5.65197
lowerneck -8.48311 -3.4272 -1.17
upperneck -1.69803 -4.47436 3.1353
head 0.996708 -2.1709 1.01893
rclavicle 1.05884e-014 3.57812e-015
rhumerus -48.9395 -13.6402 -58.9256
rradius 71.149
rwrist -1.57921
rhand -8.74181 -30.4333
rfingers 7.12502
rthumb 17.195 -59.6926
lclavicle 1.05884e-014 3.57812e-015
lhumerus -43.7499 -12.3941 89.665
lradius 52.9244
lwrist 10.3727
lhand 5.59167 14.6096
lfingers 7.12502
lthumb 30.9342 42.0236
rfemur -59.1545 -11.2232 15.8967
rtibia 32.4647
rfoot 3.04192 22.7191
rtoes -13.9746
lfemur -8.58384 4.43346 -15.8516
ltibia 31.4385
lfoot -11.8811 -5.19143
ltoes 40.5023
122
root 5.26344 17.101 -18.3783 -8.99065 18.3172 -8.161
lowerback 9.06391 -2.23634 -2.38748
upperback 0.493743 -3.02765 4.08666
thorax -4.221 -1.42038 6.00563
lowerneck -8.63013 -3.18153 -1.14832
upperneck -1.76811 -4.15208 3.49437
head 1.00256 -2.00328 1.13853
rclavicle -1.28655e-014 -1.98909e-014
rhumerus -48.4903 -14.4797 -59.7436
rradius 72.4021
rwrist -7.14412
rhand -7.52767 -31.0174
rfingers 7.12502
rthumb 18.3633 -60.1706
lclavicle -1.28655e-014 -1.98909e-014
lhumerus -44.0843 -13.3031 89.9627
lradius 54.1965
lwrist 11.0701
lhand 5.8508 14.2981
lfingers 7.12502
lthumb 31.1811 41.6649
rfemur -62.8723 -15.1633 23.2563
rtibia 35.1501
rfoot 3.10135 23.7055
rtoes -17.3444
lfemur -8.69577 5.61185 -16.3852
ltibia 32.0801
lfoot -12.2354 -5.36538
ltoes 40.4648
123
root 5.22181 17.0584 -18.3801 -8.84458 17.6379 -7.1937
lowerback 9.62755 -2.13595 -3.64229
upperback 0.645012 -3.05626 3.67661
thorax -4.33105 -1.41444 6.31736
lowerneck -8.79694 -2.95367 -1.1215
upperneck -1.87128 -3.85257 3.83399
head 1.00004 -1.8474 1.25105
rclavicle -1.12127e-014 -1.90833e-014
rhumerus -48.0695 -15.3582 -60.6759
rradius 73.6368
rwrist -12.5054
rhand -6.42117 -31.6112
rfingers 7.12502
rthumb 19.4274 -60.6606
lclavicle -1.12127e-014 -1.90833e-014
lhumerus -44.3417 -14.3036 90.1833
lradius 55.332
lwrist 11.836
lhand 6.23563 14.0127
lfingers 7.12502
lthumb 31.5478 41.3083
rfemur -66.3258 -17.5315 28.9718
rtibia 39.0761
rfoot 2.88846 22.3307
rtoes -20.1869
lfemur -8.75933 6.6452 -17.068
ltibia 32.6579
lfoot -12.5776 -5.51655
ltoes 40.4078
124
root 5.17892 17.0159 -18.3833 -8.72067 17.1946 -6.17139
lowerback 10.18 -2.08334 -4.90405
upperback 0.809526 -3.16653 3.20609
thorax -4.41051 -1.45024 6.57739
lowerneck -8.96167 -2.75563 -1.0992
upperneck -2.0262 -3.58955 4.10892
head 0.978978 -1.71141 1.34334
rclavicle -1.75614e-014 -2.38542e-014
rhumerus -47.7132 -16.2105 -61.6807
rradius 74.8502
rwrist -17.3799
rhand -5.48979 -32.0971
rfingers 7.12502
rthumb 20.3228 -61.0538
lclavicle -1.75614e-014 -2.38542e-014
lhumerus -44.4819 -15.4008 90.365
lradius 56.2736
lwrist 12.6735
lhand 6.73667 13.769
lfingers 7.12502
lthumb 32.025 40.97
rfemur -69.1143 -18.59 32.7276
rtibia 43.7287
rfoot 2.72005 19.4303
rtoes -21.7875
lfemur -8.78357 7.52393 -17.8459
ltibia 33.1428
lfoot -12.8949 -5.72561
ltoes 40.449
